<?xml version="1.0" standalone="no"?>
<!DOCTYPE svg PUBLIC "-//W3C//DTD SVG 20010904//EN"
 "http://www.w3.org/TR/2001/REC-SVG-20010904/DTD/svg10.dtd">
<svg version="1.0" xmlns="http://www.w3.org/2000/svg"
 width="144.000000pt" height="144.000000pt" viewBox="0 0 144.000000 144.000000"
 preserveAspectRatio="xMidYMid meet">
<metadata>
Created by potrace 1.11, written by Peter Selinger 2001-2013
</metadata>
<g transform="translate(0.000000,144.000000) scale(0.100000,-0.100000)"
fill="#000000" stroke="none">
<path d="M355 1364 c-27 -7 -53 -13 -57 -14 -21 -1 2 -28 119 -145 l126 -126
-91 -92 -92 -92 -130 130 c-71 71 -131 127 -133 125 -2 -3 -9 -21 -16 -40 -46
-135 -7 -295 97 -397 68 -68 157 -106 250 -109 42 -1 94 4 116 11 l41 12 285
-283 c212 -210 292 -284 309 -284 31 0 188 154 197 193 6 27 -11 47 -278 315
l-284 287 12 45 c16 62 10 165 -14 228 -69 181 -272 286 -457 236z"/>
</g>
</svg>
